<svg width="181" height="193" xmlns="http://www.w3.org/2000/svg" xmlns:xlink="http://www.w3.org/1999/xlink" xml:space="preserve" overflow="hidden"><g transform="translate(-2049 -1760)"><g><g><g><path d="M0 61.5001 17.0834 61.5001 17.0834 71.7501C17.0834 73.6372 15.5537 75.1668 13.6667 75.1668L3.41667 75.1668C1.5297 75.1668 0 73.6372 0 71.7501L0 61.5001Z" fill="#888889" transform="matrix(1 0 0 1.01219 2054 1760)"/><path d="M64.9168 61.5001 82.0002 61.5001 82.0002 71.7501C82.0002 73.6372 80.4705 75.1668 78.5835 75.1668L68.3335 75.1668C66.4464 75.1668 64.9168 73.6372 64.9168 71.7501L64.9168 61.5001Z" fill="#888889" transform="matrix(1 0 0 1.01219 2054 1760)"/><path d="M64.0479 8.54168 17.9522 8.54168C16.4268 8.54168 15.0861 9.55295 14.667 11.0197L8.54168 32.4584 73.4585 32.4584 67.3331 11.0197C66.9142 9.55295 65.5735 8.54168 64.0479 8.54168Z" stroke="#1656A8" stroke-width="3.41667" stroke-linejoin="round" fill="#FFFFFF" transform="matrix(1 0 0 1.01219 2054 1760)"/><path d="M80.2918 63.2085 1.70834 63.2085 1.70834 39.2917C1.70834 35.5177 4.76773 32.4584 8.54168 32.4584L73.4585 32.4584C77.2325 32.4584 80.2918 35.5177 80.2918 39.2917L80.2918 63.2085Z" stroke="#1656A8" stroke-width="3.41667" stroke-linejoin="round" fill="#83CAFF" transform="matrix(1 0 0 1.01219 2054 1760)"/><path d="M20.5 44.4168C20.5 48.1908 17.4406 51.2501 13.6667 51.2501 9.89274 51.2501 6.83335 48.1908 6.83335 44.4168 6.83335 40.6427 9.89274 37.5834 13.6667 37.5834 17.4406 37.5834 20.5 40.6427 20.5 44.4168Z" fill="#FFFFFF" transform="matrix(1 0 0 1.01219 2054 1760)"/><path d="M75.1668 44.4168C75.1668 48.1908 72.1075 51.2501 68.3335 51.2501 64.5594 51.2501 61.5001 48.1908 61.5001 44.4168 61.5001 40.6427 64.5594 37.5834 68.3335 37.5834 72.1075 37.5834 75.1668 40.6427 75.1668 44.4168Z" fill="#FFFFFF" transform="matrix(1 0 0 1.01219 2054 1760)"/><path d="M3.41667 54.6668 78.5835 54.6668 78.5835 61.5001 3.41667 61.5001Z" fill="#278CDD" transform="matrix(1 0 0 1.01219 2054 1760)"/><path d="M23.9167 47.8334C23.9167 45.9464 25.4464 44.4168 27.3334 44.4168L54.6668 44.4168C56.5538 44.4168 58.0834 45.9464 58.0834 47.8334L58.0834 47.8334C58.0834 49.7205 56.5538 51.2501 54.6668 51.2501L27.3334 51.2501C25.4464 51.2501 23.9167 49.7205 23.9167 47.8334L23.9167 47.8334Z" fill="#278CDD" transform="matrix(1 0 0 1.01219 2054 1760)"/></g></g></g><g><g><g><path d="M18.7916 15.375 59.7915 22.2083 66.6248 63.2082 59.7915 73.4582 49.5415 32.4583 8.54165 22.2083 18.7916 15.375Z" stroke="#1656A8" stroke-width="3.41666" stroke-linejoin="round" fill="#83CAFF" transform="matrix(1 0 0 1.0122 2049 1870)"/><path d="M32.4583 73.4582 29.0416 52.9582 8.54165 49.5415 1.70833 52.9582 18.7916 63.2082 29.0416 80.2915 32.4583 73.4582Z" stroke="#1656A8" stroke-width="3.41666" stroke-linejoin="round" fill="#83CAFF" transform="matrix(1 0 0 1.0122 2049 1870)"/><path d="M76.8748 15.3753C78.5831 13.6669 80.2915 8.54127 76.8748 5.12461 73.4582 1.70795 68.3332 3.41717 66.6248 5.12519 64.9165 6.83321 22.2083 52.9582 22.2083 52.9582L18.7916 63.2082 29.0416 59.7915C29.0416 59.7915 75.1665 17.0837 76.8748 15.3753Z" stroke="#1656A8" stroke-width="3.41666" stroke-linejoin="round" fill="#FFFFFF" transform="matrix(1 0 0 1.0122 2049 1870)"/></g></g></g><g><g><g><path d="M52.9582 1.70833C56.7321 1.70833 59.7915 4.76771 59.7915 8.54165L59.7915 73.4582C59.7915 77.2321 56.7321 80.2915 52.9582 80.2915L29.0416 80.2915C25.2677 80.2915 22.2083 77.2321 22.2083 73.4582L22.2083 8.54165C22.2083 4.76771 25.2677 1.70833 29.0416 1.70833Z" stroke="#616160" stroke-width="3.41666" fill="#616160" transform="matrix(1 0 0 1.0122 2148 1815)"/><path d="M44.4166 75.1665C44.4166 77.0535 42.8869 78.5831 40.9999 78.5831 39.1129 78.5831 37.5832 77.0535 37.5832 75.1665 37.5832 73.2795 39.1129 71.7498 40.9999 71.7498 42.8869 71.7498 44.4166 73.2795 44.4166 75.1665Z" fill="#FFFFFE" transform="matrix(1 0 0 1.0122 2148 1815)"/><path d="M23.9166 13.6666 58.0832 13.6666 58.0832 68.3332 23.9166 68.3332 23.9166 13.6666Z" fill="#FFFFFE" transform="matrix(1 0 0 1.0122 2148 1815)"/></g></g></g></g></svg>