<?xml version="1.0" encoding="utf-8"?>
<!-- Generator: Adobe Illustrator 21.0.1, SVG Export Plug-In . SVG Version: 6.00 Build 0)  -->
<!DOCTYPE svg PUBLIC "-//W3C//DTD SVG 1.1//EN" "http://www.w3.org/Graphics/SVG/1.1/DTD/svg11.dtd">
<svg version="1.1" id="svg-icon" xmlns="http://www.w3.org/2000/svg" xmlns:xlink="http://www.w3.org/1999/xlink" x="0px" y="0px"
	 width="102" height="102" viewBox="0 0 136 136" style="enable-background:new 0 0 136 136;" xml:space="preserve">
<style type="text/css">
.icon-shape{fill:#6F6F6F;}
</style>
<g id="svg-icon">
	<path class="icon-shape" d="M97.1,68.5c0-0.2,0-0.4-0.1-0.6V30.5h-0.1c0.1-0.3,0.1-0.7,0.1-1c0-7-15-10.8-29-10.8c-14.1,0-29,3.8-29,10.8
		c0,0.4,0,0.7,0.1,1H39v37.3c0,0.2-0.1,0.5-0.1,0.7s0,0.5,0.1,0.7v37.4c0,7,15,10.8,29,10.8c14.1,0,29-3.8,29-10.8V69.2
		C97.1,69,97.1,68.7,97.1,68.5z M61,61.5c1.1-0.1,2.3-0.2,3.5-0.2L51.7,74.1c-0.9-0.2-1.8-0.5-2.6-0.7L61,61.5z M46.9,72.6
		c-0.9-0.3-1.6-0.7-2.2-1.1l9-9c1.2-0.3,2.6-0.5,4-0.7L46.9,72.6z M43,70.2c-0.7-0.6-1-1.2-1-1.7c0-1.6,2.8-3.6,7.7-5L43,70.2z
		 M67.5,61.2c0.2,0,0.3,0,0.5,0c1,0,1.9,0,2.8,0L57,75.1c-1-0.1-1.9-0.3-2.8-0.5L67.5,61.2z M84.6,63c0.9,0.2,1.8,0.5,2.6,0.7
		L75.6,75.3c-1.1,0-2.3,0.1-3.4,0.1L84.6,63z M69.2,75.4c-0.4,0-0.7,0-1,0c-0.7,0-1.5,0-2.3,0L79.3,62c1,0.1,1.9,0.3,2.8,0.5
		L69.2,75.4z M62.9,75.4c-1.1,0-2.1-0.1-3.2-0.1l13.9-13.9c1.1,0.1,2.1,0.2,3.1,0.3L62.9,75.4z M89.3,64.5c0.9,0.4,1.6,0.7,2.2,1.1
		l-8.8,8.8c-1.2,0.3-2.6,0.5-4,0.7L89.3,64.5z M86.7,73.4l6.5-6.5c0.5,0.5,0.8,1.1,0.8,1.6C94,70.1,91.4,71.9,86.7,73.4z M68,21.7
		c16.1,0,26,4.5,26,7.8c0,3.2-9.9,7.8-26,7.8s-26-4.5-26-7.8S51.9,21.7,68,21.7z M68,40.2c10.3,0,21-2,26-5.8v29.3
		c-0.1-0.1-0.2-0.2-0.3-0.2c-0.6-0.4-1.3-0.8-2.1-1.2c-0.6-0.3-1.3-0.6-2-0.9c-0.8-0.3-1.6-0.6-2.5-0.9c-0.7-0.2-1.5-0.4-2.3-0.6
		c-0.9-0.2-1.8-0.4-2.7-0.6c-0.8-0.2-1.7-0.3-2.5-0.4c-1-0.1-1.9-0.3-3-0.4c-0.9-0.1-1.8-0.2-2.7-0.2c-1-0.1-2.1-0.1-3.2-0.1
		c-0.9,0-1.7,0-2.6,0c-0.1,0-0.2,0-0.3,0c-1.2,0-2.3,0-3.4,0.1c-1.1,0-2.1,0.1-3.1,0.2c-1.3,0.1-2.5,0.2-3.7,0.4s-2.4,0.3-3.5,0.5
		c-5.5,1-9.6,2.6-12.1,4.5V34.6C47,38.2,57.7,40.2,68,40.2z M75.6,82l-7,11.8c-0.3,0.4,0.1,1,0.6,1h4.4c0.5,0,0.8,0.6,0.5,1.1
		L62,110.8c-0.4,0.5-1.3,0.1-1.1-0.6L64.4,98c0.1-0.4-0.2-0.8-0.6-0.8h-2.9c-0.4,0-0.7-0.4-0.6-0.8l4.3-14.8
		c0.1-0.3,0.3-0.5,0.6-0.5h9.9C75.6,81,75.9,81.5,75.6,82z"/>
</g>
</svg>
