<svg width="1359" height="1475" xmlns="http://www.w3.org/2000/svg" xmlns:xlink="http://www.w3.org/1999/xlink" xml:space="preserve" overflow="hidden"><defs><clipPath id="clip0"><rect x="1529" y="500" width="1359" height="1475"/></clipPath></defs><g clip-path="url(#clip0)" transform="translate(-1529 -500)"><path d="M1564 1785C1564 1680.07 1642.57 1595 1739.5 1595 1836.43 1595 1915 1680.07 1915 1785 1915 1889.93 1836.43 1975 1739.5 1975 1642.57 1975 1564 1889.93 1564 1785Z" fill-rule="evenodd"/><path d="M1613.5 1779C1613.5 1702.51 1669.02 1640.5 1737.5 1640.5 1805.98 1640.5 1861.5 1702.51 1861.5 1779 1861.5 1855.49 1805.98 1917.5 1737.5 1917.5 1669.02 1917.5 1613.5 1855.49 1613.5 1779Z" stroke="#C00000" stroke-width="9.16667" stroke-linejoin="round" stroke-miterlimit="10" fill="#BFBFBF" fill-rule="evenodd"/><path d="M1530.77 1710.93C1535.06 1719.5 1560.19 1714.42 1573.71 1706.17 1587.22 1697.92 1595.18 1674.92 1611.87 1661.44 1628.57 1647.96 1651.79 1630.98 1673.89 1625.27 1696 1619.56 1721.12 1619.72 1744.5 1627.18 1767.88 1634.63 1798.09 1656.05 1814.15 1670.01 1830.21 1683.96 1824.01 1703.47 1840.87 1710.93 1857.73 1718.39 1897.32 1715.69 1915.29 1714.74 1933.26 1713.78 1945.35 1712.67 1948.69 1705.22 1952.03 1697.76 1949.48 1690.63 1935.33 1670.01 1921.18 1649.38 1895.42 1602.75 1863.77 1581.49 1832.12 1560.24 1782.19 1545.01 1745.45 1542.47 1708.72 1539.94 1676.28 1547.55 1643.36 1566.27 1610.44 1584.98 1566.71 1630.35 1547.95 1654.78 1529.18 1679.21 1526.48 1702.36 1530.77 1710.93Z" fill="#D78824" fill-rule="evenodd"/><path d="M1919.92 1710.63 2162.24 1704.88 2492.33 1702 2520 1702 2520 1702 2501.87 1765.32 2501.87 1765.32C2497.1 1770.75 2483.91 1789.94 2473.25 1797.93 2462.6 1805.93 2460.85 1809.6 2437.95 1813.28 2415.06 1816.96 2404.72 1819.84 2335.87 1820 2267.03 1820.16 2024.86 1814.24 2024.86 1814.24L1964.76 1813.28 1856 1810.4 1856 1810.4 1919.92 1710.63Z" fill="#7F7F7F" fill-rule="evenodd"/><path d="M1944.58 1709.92C1936.94 1704.03 1892.56 1713.26 1870.13 1716.6 1847.69 1719.94 1809.99 1729.96 1809.99 1729.96L1809.99 1729.96 1728.85 1743.32C1709.29 1746.51 1701.97 1744.92 1692.58 1749.05 1683.2 1753.19 1675.08 1759.07 1672.54 1768.14 1669.99 1777.21 1677.31 1803.46 1677.31 1803.46L1677.31 1803.46 1771.81 1811.09C1789.15 1812.05 1749.06 1808.86 1781.35 1809.18 1813.65 1809.5 1965.58 1813 1965.58 1813L1965.58 1813C1964.78 1810.14 1969.08 1806 1960.81 1795.82 1952.53 1785.64 1918.49 1767.03 1915.94 1751.91 1913.4 1736.8 1952.22 1715.8 1944.58 1709.92Z" fill="#0070C0" fill-rule="evenodd"/><path d="M2420 1702 2527.09 1700.73 2527.09 1700.73C2536.44 1682.26 2562.15 1625.15 2583.18 1589.92 2604.22 1554.68 2641.4 1506.91 2653.3 1489.29 2665.2 1471.68 2658.4 1509.25 2654.57 1484.2 2650.75 1459.15 2630.35 1339 2630.35 1339L2630.35 1339C2612.5 1367.23 2557.26 1447.47 2523.26 1508.4 2489.27 1569.32 2457.82 1636.94 2420 1702Z" fill="#0070C0" fill-rule="evenodd"/><path d="M2645.92 1507.4C2634.4 1517.06 2651.96 1549.18 2651.96 1549.18 2653.4 1556.29 2642.17 1551.6 2654.55 1550.03 2666.94 1548.47 2713.45 1542.36 2726.26 1539.8 2739.08 1537.24 2732.31 1542.78 2731.45 1534.68 2730.58 1526.58 2734.76 1496.17 2721.08 1491.2 2707.4 1486.22 2657.43 1497.74 2645.92 1507.4Z" fill="#D78824" fill-rule="evenodd"/><path d="M2536 1785C2536 1680.07 2614.8 1595 2712 1595 2809.2 1595 2888 1680.07 2888 1785 2888 1889.93 2809.2 1975 2712 1975 2614.8 1975 2536 1889.93 2536 1785Z" fill-rule="evenodd"/><path d="M2585.5 1779C2585.5 1702.51 2641.02 1640.5 2709.5 1640.5 2777.98 1640.5 2833.5 1702.51 2833.5 1779 2833.5 1855.49 2777.98 1917.5 2709.5 1917.5 2641.02 1917.5 2585.5 1855.49 2585.5 1779Z" stroke="#C00000" stroke-width="9.16667" stroke-linejoin="round" stroke-miterlimit="10" fill="#BFBFBF" fill-rule="evenodd"/><path d="M2650.06 1535.6C2634.18 1548.76 2631.43 1562.57 2631.01 1601.86 2630.58 1641.15 2647.52 1771.33 2647.52 1771.33L2647.52 1771.33C2649.63 1775.79 2652.17 1794.06 2660.22 1798.09 2668.26 1802.13 2689.64 1802.55 2695.78 1795.55 2701.92 1788.54 2697.9 1790.87 2697.05 1756.04 2696.2 1721.21 2690.7 1586.57 2690.7 1586.57L2690.7 1586.57C2697.68 1580.83 2726.68 1562.78 2732.61 1552.16 2738.54 1541.54 2740.23 1525.19 2726.26 1522.85 2712.29 1520.52 2665.93 1522.43 2650.06 1535.6Z" fill="#0070C0" fill-rule="evenodd"/><path d="M2566.55 522.119 2538.93 522.119C2525.81 522.349 2505.55 526.028 2487.82 523.498 2470.1 520.969 2447.31 510.85 2432.58 506.941 2417.85 503.031 2408.18 499.581 2399.43 500.041 2390.68 500.501 2384.7 503.491 2380.09 509.7 2375.49 515.909 2366.05 529.017 2371.81 537.297 2377.56 545.576 2414.62 559.374 2414.62 559.374L2414.62 559.374 2467.11 569.033 2467.11 569.033C2469.87 573.172 2474.7 589.73 2483.68 593.87 2492.66 598.009 2520.97 593.87 2520.97 593.87L2520.97 593.87C2523.05 603.299 2515.91 541.206 2533.4 650.443 2550.9 759.68 2625.94 1249.29 2625.94 1249.29L2625.94 1249.29C2631.93 1259.87 2654.49 1317.13 2661.85 1312.76 2669.22 1308.39 2683.03 1335.76 2670.14 1223.07 2657.25 1110.39 2597.17 735.993 2584.51 636.645 2571.85 537.297 2590.03 630.665 2594.18 626.986 2598.32 623.306 2602.46 613.647 2609.37 614.567 2616.27 615.487 2622.03 631.125 2635.61 632.505 2649.19 633.885 2690.86 622.846 2690.86 622.846L2690.86 622.846C2702.6 624.686 2750.48 636.875 2761.3 633.885 2772.12 630.895 2755.77 604.908 2755.77 604.908L2755.77 604.908C2742.19 599.849 2692.01 585.361 2674.28 574.552 2656.56 563.744 2649.42 540.056 2649.42 540.056L2649.42 540.056 2566.55 522.119Z" fill="#404040" fill-rule="evenodd"/><path d="M2647.8 1505.65 2611 1237.99 2611 1237.99C2623.98 1235.55 2675.46 1222.93 2688.87 1223.36 2702.28 1223.79 2685.73 1195.53 2691.44 1240.57 2697.14 1285.61 2717.54 1450.14 2723.1 1493.6 2728.66 1537.06 2736.79 1500.77 2724.81 1501.35 2712.83 1501.92 2682.02 1499.48 2647.8 1505.65Z" fill="#0070C0" fill-rule="evenodd"/><path d="M2572.49 1647.64C2567.05 1656.86 2608.54 1616.4 2630.87 1609.63 2653.19 1602.86 2684.81 1603.72 2706.42 1607.04 2728.02 1610.35 2747.34 1627.05 2760.5 1629.5 2773.67 1631.95 2776.67 1625.47 2785.4 1621.72 2794.13 1617.98 2812.88 1607.04 2812.88 1607.04L2812.88 1607.04C2818.31 1608.04 2850.36 1618.7 2845.5 1613.08 2840.63 1607.47 2814.02 1583.13 2783.69 1573.34 2753.35 1563.55 2697.83 1542.96 2663.49 1554.33 2629.15 1565.71 2577.92 1638.43 2572.49 1647.64Z" fill="#0070C0" fill-rule="evenodd"/><path d="M2477.31 520 2463 567.112 2463 567.112C2465.81 567.54 2475.91 575.963 2479.83 569.681 2483.76 563.4 2485.16 546.411 2477.31 520Z" fill="#FFFF00" fill-rule="evenodd"/><path d="M2670.02 572 2655 619.111 2655 619.111C2657.95 619.54 2668.55 627.963 2672.68 621.681 2676.8 615.4 2678.27 598.411 2670.02 572Z" fill="#FFFF00" fill-rule="evenodd"/><path d="M2175.99 1711.81 2207.53 1739.09 2196.54 1744.14 2234.73 1766.14 2223.84 1771.95 2272.47 1810.68 2195.08 1785.98 2208.46 1779.56 2160.29 1763.56 2175.75 1754.85 2124.91 1738.11Z" fill="#FFFF00" fill-rule="evenodd"/></g></svg>