<svg width="587" height="721" xmlns="http://www.w3.org/2000/svg" xmlns:xlink="http://www.w3.org/1999/xlink" xml:space="preserve" overflow="hidden"><g transform="translate(-1045 -715)"><g><g><g><path d="M387.686 273.496C387.686 272.698 387.686 271.899 387.287 271.101L387.287 121.776 386.887 121.776C387.287 120.578 387.287 118.981 387.287 117.783 387.287 89.8345 327.397 74.6625 271.5 74.6625 215.204 74.6625 155.713 89.8345 155.713 117.783 155.713 119.38 155.713 120.578 156.112 121.776L155.713 121.776 155.713 270.701C155.713 271.5 155.314 272.698 155.314 273.496 155.314 274.295 155.314 275.493 155.713 276.291L155.713 425.616C155.713 453.564 215.603 468.737 271.5 468.737 327.796 468.737 387.287 453.564 387.287 425.616L387.287 276.291C387.686 275.493 387.686 274.295 387.686 273.496ZM243.551 245.548C247.943 245.148 252.734 244.749 257.526 244.749L206.42 295.855C202.826 295.056 199.233 293.859 196.039 293.06L243.551 245.548ZM187.255 289.866C183.662 288.668 180.867 287.071 178.471 285.474L214.405 249.54C219.196 248.343 224.786 247.544 230.376 246.745L187.255 289.866ZM171.684 280.284C168.889 277.888 167.691 275.493 167.691 273.496 167.691 267.108 178.87 259.123 198.434 253.533L171.684 280.284ZM269.504 244.35C270.302 244.35 270.701 244.35 271.5 244.35 275.493 244.35 279.086 244.35 282.679 244.35L227.581 299.848C223.588 299.448 219.995 298.65 216.401 297.851L269.504 244.35ZM337.778 251.537C341.371 252.335 344.965 253.533 348.159 254.332L301.844 300.646C297.452 300.646 292.661 301.045 288.269 301.045L337.778 251.537ZM276.291 301.045C274.694 301.045 273.496 301.045 272.298 301.045 269.504 301.045 266.309 301.045 263.115 301.045L316.617 247.544C320.609 247.943 324.203 248.742 327.796 249.54L276.291 301.045ZM251.137 301.045C246.745 301.045 242.753 300.646 238.361 300.646L293.859 245.148C298.251 245.548 302.243 245.947 306.236 246.346L251.137 301.045ZM356.543 257.526C360.137 259.123 362.931 260.32 365.327 261.918L330.192 297.053C325.401 298.251 319.811 299.049 314.221 299.848L356.543 257.526ZM346.162 293.06 372.115 267.108C374.111 269.104 375.309 271.5 375.309 273.496 375.309 279.884 364.928 287.071 346.162 293.06ZM271.5 86.6404C335.781 86.6404 375.309 104.607 375.309 117.783 375.309 130.56 335.781 148.926 271.5 148.926 207.218 148.926 167.691 130.959 167.691 117.783 167.691 104.607 207.218 86.6404 271.5 86.6404ZM271.5 160.504C312.624 160.504 355.345 152.519 375.309 137.347L375.309 254.332C374.909 253.932 374.51 253.533 374.111 253.533 371.715 251.936 368.92 250.339 365.726 248.742 363.331 247.544 360.536 246.346 357.741 245.148 354.547 243.951 351.353 242.753 347.759 241.555 344.965 240.757 341.77 239.958 338.576 239.159 334.983 238.361 331.39 237.562 327.796 236.764 324.602 235.965 321.009 235.566 317.815 235.167 313.822 234.768 310.229 233.969 305.837 233.57 302.243 233.17 298.65 232.771 295.056 232.771 291.064 232.372 286.672 232.372 282.28 232.372 278.687 232.372 275.493 232.372 271.899 232.372 271.5 232.372 271.101 232.372 270.701 232.372 265.91 232.372 261.518 232.372 257.126 232.771 252.734 232.771 248.742 233.17 244.749 233.57 239.559 233.969 234.768 234.368 229.976 235.167 225.185 235.965 220.394 236.365 216.002 237.163 194.043 241.156 177.673 247.544 167.691 255.13L167.691 138.146C187.654 152.519 230.376 160.504 271.5 160.504ZM301.844 327.397 273.895 374.51C272.698 376.107 274.295 378.503 276.291 378.503L293.859 378.503C295.855 378.503 297.053 380.898 295.855 382.895L247.544 442.385C245.947 444.381 242.354 442.784 243.152 439.99L257.126 391.279C257.526 389.682 256.328 388.085 254.731 388.085L243.152 388.085C241.555 388.085 240.357 386.488 240.757 384.891L257.925 325.8C258.324 324.602 259.123 323.804 260.32 323.804L299.848 323.804C301.844 323.404 303.042 325.401 301.844 327.397Z" fill="#6F6F6F" transform="matrix(1 0 0 1 1045 893)"/></g></g></g><g><g><g><path d="M303.298 202.335C310.685 232.296 279.904 261.846 249.533 249.533 224.087 240.504 214.237 210.954 231.885 185.508 271.696 132.565 242.556 49.25 176.479 20.5208 206.44 77.1583 160.473 129.281 134.206 151.033 107.94 172.785 90.2917 195.358 84.9562 208.492 58.2792 273.337 98.0896 335.31 125.177 350.085 112.865 322.177 101.373 268.823 149.802 218.752 149.802 218.752 135.848 272.106 166.219 309.044 196.59 345.981 196.179 373.479 196.179 373.479 243.377 373.479 288.112 345.16 306.992 298.783 321.356 271.285 322.587 227.781 303.298 202.335" fill="#C00000" transform="matrix(1 0 0 1 1238 715)"/></g></g></g></g></svg>