<svg width="1570" height="916" xmlns="http://www.w3.org/2000/svg" xmlns:xlink="http://www.w3.org/1999/xlink" xml:space="preserve" overflow="hidden"><g transform="translate(-814 -326)"><path d="M1100.5 935.5 1293 935.5" stroke="#000000" stroke-width="6.875" stroke-linejoin="round" stroke-miterlimit="10" fill="none" fill-rule="evenodd"/><path d="M1128.5 963.5 1266 963.5" stroke="#000000" stroke-width="6.875" stroke-linejoin="round" stroke-miterlimit="10" fill="none" fill-rule="evenodd"/><path d="M0 0 0.000360892 247.5" stroke="#000000" stroke-width="6.875" stroke-linejoin="round" stroke-miterlimit="10" fill="none" fill-rule="evenodd" transform="matrix(1 0 0 -1 1196.5 936)"/><path d="M1196.5 688.5 1512.75 688.5" stroke="#000000" stroke-width="6.875" stroke-linejoin="round" stroke-miterlimit="10" fill="none" fill-rule="evenodd"/><path d="M0 0 165 55" stroke="#000000" stroke-width="6.875" stroke-linejoin="round" stroke-miterlimit="10" fill="none" fill-rule="evenodd" transform="matrix(1 0 0 -1 1513.5 688.5)"/><path d="M1650.5 688.5 1953 688.5" stroke="#000000" stroke-width="6.875" stroke-linejoin="round" stroke-miterlimit="10" fill="none" fill-rule="evenodd"/><path d="M1953.5 688.5 1953.5 881" stroke="#000000" stroke-width="6.875" stroke-linejoin="round" stroke-miterlimit="10" fill="none" fill-rule="evenodd"/><path d="M1870.5 963C1870.5 917.436 1907.44 880.5 1953 880.5 1998.56 880.5 2035.5 917.436 2035.5 963 2035.5 1008.56 1998.56 1045.5 1953 1045.5 1907.44 1045.5 1870.5 1008.56 1870.5 963Z" stroke="#000000" stroke-width="6.875" stroke-linejoin="round" stroke-miterlimit="10" fill="none" fill-rule="evenodd"/><path d="M1952.5 1045.5 1952.5 1238" stroke="#000000" stroke-width="6.875" stroke-linejoin="round" stroke-miterlimit="10" fill="none" fill-rule="evenodd"/><path d="M1196.5 1237.5 1952.75 1237.5" stroke="#000000" stroke-width="6.875" stroke-linejoin="round" stroke-miterlimit="10" fill="none" fill-rule="evenodd"/><path d="M0 0 0.000360892 271.428" stroke="#000000" stroke-width="6.875" stroke-linejoin="round" stroke-miterlimit="10" fill="none" fill-rule="evenodd" transform="matrix(1 0 0 -1 1196.5 1237.93)"/><rect x="2172.5" y="330.5" width="207" height="248" stroke="#000000" stroke-width="9.16667" stroke-linejoin="round" stroke-miterlimit="10" fill="#BFBFBF"/><path d="M1956.5 687.5C1969.44 666.17 1982.39 644.841 2019.2 630.304 2056.01 615.767 2140.33 616.243 2177.38 600.276 2214.42 584.308 2197.32 560.715 2241.5 534.5" stroke="#000000" stroke-width="6.875" stroke-linejoin="round" stroke-miterlimit="10" fill="none" fill-rule="evenodd"/><path d="M1951.5 1237.5C1997.97 1221.08 2044.43 1204.66 2084.47 1164.69 2124.5 1124.71 2168.11 1070.46 2191.7 997.647 2215.29 924.834 2208.38 804.669 2226.01 727.812 2243.65 650.954 2222.44 588.135 2297.5 536.5" stroke="#000000" stroke-width="6.875" stroke-linejoin="round" stroke-miterlimit="10" fill="none" fill-rule="evenodd"/><rect x="2197.5" y="358.5" width="165" height="67" stroke="#000000" stroke-width="9.16667" stroke-linejoin="round" stroke-miterlimit="10" fill="#FFFFFF"/><path d="M1894.5 904.5 2011.17 1021.17" stroke="#000000" stroke-width="6.875" stroke-linejoin="round" stroke-miterlimit="10" fill="none" fill-rule="evenodd"/><path d="M0 0 116.673 116.673" stroke="#000000" stroke-width="6.875" stroke-linejoin="round" stroke-miterlimit="10" fill="none" fill-rule="evenodd" transform="matrix(-1 0 0 1 2011.17 904.5)"/><text font-family="Arial,Arial_MSFontService,sans-serif" font-weight="400" font-size="92" transform="matrix(1 0 0 1 869.879 882)">Battery</text><text font-family="Arial,Arial_MSFontService,sans-serif" font-weight="400" font-size="92" transform="matrix(1 0 0 1 1406.86 559)">(Switch)</text><text font-family="Arial,Arial_MSFontService,sans-serif" font-weight="400" font-size="92" transform="matrix(1 0 0 1 1971.95 853)">Load</text></g></svg>